# xmcd
#
# Track frame offsets:
# 150
# 13810
# 31604
# 46909
# 60625
# 80298
# 96214
# 113909
# 129403
# 142639
# 163545
# 181884
# 201132
# 215176
# 230306
# 246946
# 263207
# 277469
# 294044
# 307833
#
# Disc length: 4260 seconds
#
#
# Revision: 0
# Processed by: cddbd v1.5.2PL0 Copyright (c) Steve Scherf et al.
# Submitted via: FreeRIP 2.944 
#
DISCID=1110a214
DTITLE=Diversos - Nação Sertanaja vol III
DYEAR=2006
DGENRE=Sertaneja
TTITLE0=Jayne - Chorão
TTITLE1=Lucas e Luan - Dona dos Meus sonhos
TTITLE2=André e Adriano - Rapadura
TTITLE3=Beto e Freddo - Namoro por telefone
TTITLE4=Max e Capella - Tequila
TTITLE5=Cesar e Kaique - Me leva a loucura
TTITLE6=Beto e Fredo - Noite de balada
TTITLE7=Guto e Gabriel - Me mostre um sorriso
TTITLE8=Lucas e Luan - Paixão do interior
TTITLE9=Max Capella- Vida minha vida
TTITLE10=Léo Jr. - Coração de Mulher
TTITLE11=Violeiros Matutos - Tempos atrás
TTITLE12=Luan e Luciano - Remédio da Paixão
TTITLE13=Dhiego Jhonatan - Mar de ilusões
TTITLE14=Zé Paulo Medeiros (particip. Tinoco) - Viola
TTITLE15=Léo Jr. Tem que ter mulher
TTITLE16=Sérgio Correia e Paulinho - Bailão e Rodeio
TTITLE17=Jean César e Gil - Quero Sentir
TTITLE18=Tuta Guedes - É fogo e prazer
TTITLE19=Max e Capella - Gato pia
EXTD=
EXTT0=
EXTT1=
EXTT2=
EXTT3=
EXTT4=
EXTT5=
EXTT6=
EXTT7=
EXTT8=
EXTT9=
EXTT10=
EXTT11=
EXTT12=
EXTT13=
EXTT14=
EXTT15=
EXTT16=
EXTT17=
EXTT18=
EXTT19=
PLAYORDER=
